<?xml version="1.0" encoding="utf-8"?>
<!-- Generator: Adobe Illustrator 27.5.0, SVG Export Plug-In . SVG Version: 6.00 Build 0)  -->
<svg version="1.1" xmlns="http://www.w3.org/2000/svg" xmlns:xlink="http://www.w3.org/1999/xlink" x="0px" y="0px"
	 viewBox="0 0 750 500" style="enable-background:new 0 0 750 500;" xml:space="preserve">
<g id="Background_Complete">
	<path style="fill:#EBEBEB;" d="M185.53,130.103l0.557,1.008c0.625,1.132,1.565,2.063,2.708,2.682l1.018,0.552l-1.018,0.552
		c-1.143,0.619-2.082,1.55-2.708,2.682l-0.557,1.009l-0.557-1.009c-0.625-1.132-1.565-2.063-2.708-2.682l-1.018-0.552l1.018-0.552
		c1.143-0.619,2.083-1.55,2.708-2.682L185.53,130.103z"/>
	<path style="fill:#EBEBEB;" d="M601.34,258.617l0.557,1.008c0.625,1.132,1.565,2.063,2.708,2.682l1.018,0.552l-1.018,0.552
		c-1.143,0.619-2.083,1.55-2.708,2.682l-0.557,1.009l-0.557-1.009c-0.625-1.132-1.565-2.063-2.708-2.682l-1.018-0.552l1.018-0.552
		c1.143-0.619,2.083-1.55,2.708-2.682L601.34,258.617z"/>
	<path style="fill:#EBEBEB;" d="M542.284,389.424l0.952,1.741c1.069,1.954,2.675,3.561,4.629,4.629l1.741,0.952l-1.741,0.952
		c-1.954,1.069-3.56,2.675-4.629,4.629l-0.952,1.741l-0.952-1.741c-1.069-1.954-2.675-3.56-4.629-4.629l-1.741-0.952l1.741-0.952
		c1.954-1.069,3.56-2.675,4.629-4.629L542.284,389.424z"/>
	<path style="fill:#EBEBEB;" d="M279.094,416.181l0.557,1.009c0.625,1.132,1.565,2.063,2.708,2.682l1.018,0.552l-1.018,0.552
		c-1.143,0.619-2.083,1.55-2.708,2.682l-0.557,1.009l-0.557-1.009c-0.625-1.132-1.565-2.063-2.708-2.682l-1.018-0.552l1.018-0.552
		c1.143-0.619,2.083-1.55,2.708-2.682L279.094,416.181z"/>
	<g>
		<g>
			<circle style="fill:#EBEBEB;" cx="149.6" cy="227.196" r="42.644"/>
			<circle style="fill:#F5F5F5;" cx="137.101" cy="240.507" r="6.955"/>
			<path style="fill:#F5F5F5;" d="M134.192,220.436c0,2.234-1.811,4.046-4.046,4.046c-2.234,0-4.046-1.811-4.046-4.046
				c0-2.234,1.811-4.046,4.046-4.046C132.381,216.39,134.192,218.202,134.192,220.436z"/>
		</g>
		<path style="fill:#F5F5F5;" d="M108.23,237.566c0.191,0.74-36.498,35.942-27.041,43.442c9.457,7.5,49.24-11.739,83.154-39.132
			c33.914-27.392,64.893-60.654,56.415-69.458c-8.479-8.805-50.861,17.264-50.861,17.264l5.065,3.23c0,0,25.625-16.441,33.73-10.059
			c8.105,6.382-15,31.305-47.61,55.11c-32.61,23.805-64.118,40.516-69.009,33.994c-4.891-6.522,18.188-28.276,18.188-28.276
			L108.23,237.566z"/>
	</g>
	<g>
		<path style="fill:#FAFAFA;" d="M588.787,50.921c-5.439-3.16-12.462-0.357-17.35,3.602c-4.888,3.96-8.996,9.131-14.799,11.56
			c-3.695,1.547-7.929,1.903-11.202,4.212c-5.331,3.761-6.262,11.338-5.342,17.797c0.919,6.459,3.19,12.868,2.392,19.343
			c-0.585,4.748-2.805,9.5-1.603,14.13c1.684,6.489,9.143,9.577,12.779,15.21c2.61,4.044,3.32,9.497,7.209,12.334
			c4.512,3.291,10.784,1.37,16.346,1.871c6.849,0.616,12.711,5.013,19.223,7.222c10.393,3.525,22.609,0.975,30.724-6.413
			c4.13-3.76,7.177-8.577,11.238-12.412c3.48-3.285,7.698-5.846,10.547-9.691c2.759-3.722,3.995-8.324,5.174-12.805
			c1.722-6.544,3.456-13.353,2.197-20.001c-2.01-10.61-11.058-18.339-15.77-28.055c-1.837-3.788-3.188-8.119-6.593-10.594
			c-3.61-2.624-8.499-2.404-12.728-3.831c-6.069-2.048-10.65-7.457-16.854-9.052c-5.682-1.461-12.145,0.85-15.613,5.583"/>
		<g>
			
				<ellipse transform="matrix(0.9674 -0.2531 0.2531 0.9674 -6.3647 154.5929)" style="fill:#EBEBEB;" cx="597.685" cy="102.035" rx="46.207" ry="46.207"/>
			<path style="fill:#F5F5F5;" d="M584.06,109.68c-2.568,3.276-7.305,3.849-10.58,1.282c-3.276-2.568-3.849-7.305-1.281-10.58
				c2.568-3.276,7.305-3.849,10.58-1.281C586.054,101.667,586.628,106.404,584.06,109.68z"/>
			<path style="fill:#F5F5F5;" d="M589.065,85.97c-1.494,1.905-4.249,2.239-6.155,0.745c-1.906-1.494-2.239-4.249-0.745-6.155
				c1.494-1.905,4.249-2.239,6.155-0.745C590.225,81.309,590.559,84.065,589.065,85.97z"/>
		</g>
	</g>
	<g>
		
			<ellipse transform="matrix(0.7071 -0.7071 0.7071 0.7071 -49.5933 521.9978)" style="fill:#F5F5F5;" cx="605.31" cy="320.863" rx="31.326" ry="31.326"/>
		<path style="fill:#EBEBEB;" d="M609.613,311.185c0.067-2.821,2.408-5.053,5.229-4.987c2.821,0.067,5.053,2.408,4.987,5.229
			c-0.067,2.821-2.408,5.053-5.229,4.986C611.779,316.347,609.546,314.006,609.613,311.185z"/>
		<path style="fill:#EBEBEB;" d="M616.508,326.096c0.039-1.641,1.401-2.94,3.042-2.901c1.641,0.039,2.94,1.401,2.901,3.042
			c-0.039,1.641-1.401,2.94-3.042,2.901C617.767,329.099,616.469,327.737,616.508,326.096z"/>
	</g>
	<path style="fill:#EBEBEB;" d="M529.69,231.163l0.952,1.741c1.069,1.954,2.675,3.561,4.629,4.629l1.741,0.952l-1.741,0.952
		c-1.954,1.069-3.56,2.675-4.629,4.629l-0.952,1.741l-0.952-1.741c-1.069-1.954-2.675-3.561-4.629-4.629l-1.741-0.952l1.741-0.952
		c1.954-1.069,3.56-2.675,4.629-4.629L529.69,231.163z"/>
</g>
<g id="Background_Simple" style="display:none;">
	<polyline style="display:inline;opacity:0.2;" points="416.77,287.652 459.195,259.013 447.444,271.447 	"/>
	<path style="display:inline;fill:#EBEBEB;" d="M544.702,154.421c-11.036-30.414-39.737-53.67-71.777-58.16
		s-66.029,9.979-85.001,36.188c-11.107,15.345-17.036,33.71-24.756,51.009c-7.719,17.299-18.15,34.545-34.747,43.675
		c-33.232,18.28-77.642-2.305-111.334,15.111c-23.001,11.889-34.795,40.174-31.214,65.817c3.581,25.643,20.474,48.135,41.775,62.854
		c21.301,14.719,46.696,22.436,72.158,27.132c40.215,7.416,82.35,7.689,121.398-4.456c39.048-12.145,74.785-37.517,94.806-73.174
		c15.698-27.958,28.521-55.42,33.513-87.093C553.356,209.005,552.323,177.425,544.702,154.421"/>
</g>
<g id="Character">
	<g>
		<path style="fill:#E8505B;" d="M374.722,301.719l-19.928,9.813c-11.751,5.786-25.967,0.952-31.754-10.799l-33.513-68.055
			c-5.786-11.751-0.952-25.967,10.799-31.754l19.928-9.813c11.751-5.787,25.967-0.952,31.754,10.799l33.513,68.055
			C391.307,281.716,386.473,295.932,374.722,301.719z"/>
		<path style="opacity:0.4;" d="M374.722,301.496l-19.928,9.813c-11.751,5.787-25.967,0.952-31.754-10.799l-33.513-68.055
			c-5.786-11.751-0.952-25.967,10.799-31.754l19.928-9.813c11.751-5.786,25.967-0.952,31.754,10.799l33.513,68.055
			C391.307,281.493,386.473,295.709,374.722,301.496z"/>
		<g>
			<path style="fill:#263238;" d="M397.933,419.223c0.011,0.025-0.245,0.16-0.757,0.402c-0.529,0.24-1.293,0.586-2.291,1.039
				c-1.018,0.431-2.316,0.869-3.834,1.431c-0.777,0.23-1.612,0.478-2.505,0.742c-0.89,0.283-1.856,0.511-2.885,0.734
				c-4.095,0.945-9.237,1.687-15.232,1.565c-2.998-0.01-6.191-0.382-9.548-0.917c-3.339-0.646-6.838-1.528-10.378-2.87
				c-3.522-1.374-7.094-3.133-10.564-5.39c-3.444-2.299-6.729-5.126-9.72-8.429c-5.972-6.589-10.762-15.216-12.777-25.08
				c-1.009-4.916-1.316-10.127-0.687-15.364c0.611-5.236,2.274-10.471,4.87-15.292c2.591-4.827,6.089-9.267,10.308-13.031
				c4.222-3.747,9.154-6.884,14.63-8.872c5.469-2.008,11.296-2.791,16.966-2.396c2.833,0.243,5.644,0.83,8.272,1.905
				c2.618,1.069,5.065,2.65,6.949,4.766c1.879,2.097,3.249,4.647,3.805,7.395c0.563,2.736,0.217,5.682-1.056,8.124
				c-0.603,1.235-1.396,2.36-2.317,3.336c-0.904,0.994-1.924,1.859-3.006,2.602c-2.151,1.517-4.534,2.568-6.947,3.346
				c-9.785,2.821-19.837,1.413-27.927-2.303c-8.158-3.689-14.514-9.641-18.347-16.198c-1.94-3.271-3.269-6.675-4.09-9.988
				c-0.819-3.312-1.266-6.518-1.301-9.525c-0.118-6.02,1.037-11.151,2.444-15.114c1.431-3.977,3.154-6.791,4.374-8.632
				c0.634-0.907,1.179-1.555,1.525-2.003c0.354-0.442,0.546-0.66,0.567-0.643c0.021,0.017-0.128,0.267-0.439,0.739
				c-0.302,0.478-0.802,1.152-1.389,2.079c-1.125,1.881-2.74,4.71-4.062,8.659c-1.299,3.934-2.344,8.995-2.145,14.89
				c0.075,2.945,0.554,6.075,1.389,9.296c0.837,3.223,2.167,6.522,4.079,9.677c3.777,6.323,9.989,12.049,17.928,15.579
				c3.958,1.756,8.327,3.016,12.926,3.419c4.581,0.417,9.41,0.059,14.038-1.307c2.289-0.749,4.543-1.756,6.536-3.175
				c1.005-0.694,1.94-1.495,2.758-2.401c0.836-0.89,1.541-1.901,2.07-2.996c1.122-2.171,1.412-4.726,0.911-7.162
				c-0.499-2.444-1.743-4.766-3.46-6.672c-1.711-1.916-3.948-3.364-6.396-4.361c-2.451-0.999-5.111-1.556-7.818-1.786
				c-5.43-0.369-11.025,0.379-16.295,2.314c-10.548,3.911-19.106,11.868-24.129,21.16c-2.52,4.66-4.131,9.687-4.738,14.751
				c-0.623,5.062-0.344,10.114,0.617,14.895c1.919,9.595,6.544,18.038,12.331,24.502c2.898,3.241,6.083,6.022,9.424,8.291
				c3.372,2.23,6.853,3.982,10.293,5.362c3.457,1.348,6.884,2.25,10.161,2.923c3.295,0.564,6.436,0.971,9.391,1.021
				c5.909,0.204,11.003-0.44,15.078-1.286c1.024-0.198,1.987-0.401,2.875-0.659c0.893-0.238,1.729-0.46,2.506-0.667
				c1.521-0.512,2.828-0.9,3.859-1.282c1.02-0.388,1.8-0.686,2.341-0.892C397.643,419.285,397.922,419.198,397.933,419.223z"/>
		</g>
		<g>
			<path style="fill:#263238;" d="M335.11,277.005c0.031,0.082-1.163,0.547-2.999,1.478c-1.836,0.927-4.288,2.382-6.731,4.348
				c-2.438,1.974-4.377,4.066-5.671,5.665c-1.297,1.598-2.003,2.667-2.076,2.62c-0.03-0.019,0.117-0.304,0.412-0.805
				c0.289-0.504,0.756-1.205,1.374-2.041c1.232-1.674,3.159-3.84,5.634-5.843c2.479-1.996,5.003-3.423,6.898-4.275
				c0.948-0.428,1.731-0.737,2.285-0.913C334.788,277.056,335.098,276.971,335.11,277.005z"/>
		</g>
		<g>
			<path style="fill:#263238;" d="M326.143,290.467c-0.022-0.013,0.146-0.335,0.663-0.711c0.506-0.36,1.428-0.761,2.59-0.566
				c1.144,0.186,2.415,1.137,2.865,2.645c0.466,1.506-0.206,3.414-1.723,4.4c-0.753,0.497-1.683,0.681-2.518,0.548
				c-0.836-0.13-1.592-0.501-2.164-1.019c-0.578-0.509-0.98-1.17-1.143-1.84c-0.176-0.67-0.122-1.325,0.024-1.879
				c0.298-1.125,0.983-1.834,1.493-2.191c0.526-0.358,0.88-0.42,0.886-0.397c0.019,0.043-0.303,0.171-0.762,0.557
				c-0.445,0.384-1.034,1.082-1.26,2.118c-0.258,1.011,0.004,2.379,1.078,3.271c1.006,0.902,2.759,1.292,4.081,0.395
				c1.322-0.857,1.928-2.537,1.545-3.832c-0.367-1.325-1.471-2.21-2.476-2.415c-1.028-0.22-1.902,0.087-2.409,0.376
				C326.396,290.228,326.177,290.498,326.143,290.467z"/>
		</g>
		<path style="fill:#E8505B;" d="M374.722,301.719l-19.928,9.813c-11.751,5.786-25.967,0.952-31.754-10.799l-33.513-68.055
			c-5.786-11.751-0.952-25.967,10.799-31.754l19.928-9.813c11.751-5.787,25.967-0.952,31.754,10.799l33.513,68.055
			C391.307,281.716,386.473,295.932,374.722,301.719z"/>
		<path style="opacity:0.4;" d="M374.722,301.496l-19.928,9.813c-11.751,5.787-25.967,0.952-31.754-10.799l-33.513-68.055
			c-5.786-11.751-0.952-25.967,10.799-31.754l19.928-9.813c11.751-5.786,25.967-0.952,31.754,10.799l33.513,68.055
			C391.307,281.493,386.473,295.709,374.722,301.496z"/>
		<g>
			<path style="fill:#263238;" d="M397.933,419.223c0.011,0.025-0.245,0.16-0.757,0.402c-0.529,0.24-1.293,0.586-2.291,1.039
				c-1.018,0.431-2.316,0.869-3.834,1.431c-0.777,0.23-1.612,0.478-2.505,0.742c-0.89,0.283-1.856,0.511-2.885,0.734
				c-4.095,0.945-9.237,1.687-15.232,1.565c-2.998-0.01-6.191-0.382-9.548-0.917c-3.339-0.646-6.838-1.528-10.378-2.87
				c-3.522-1.374-7.094-3.133-10.564-5.39c-3.444-2.299-6.729-5.126-9.72-8.429c-5.972-6.589-10.762-15.216-12.777-25.08
				c-1.009-4.916-1.316-10.127-0.687-15.364c0.611-5.236,2.274-10.471,4.87-15.292c2.591-4.827,6.089-9.267,10.308-13.031
				c4.222-3.747,9.154-6.884,14.63-8.872c5.469-2.008,11.296-2.791,16.966-2.396c2.833,0.243,5.644,0.83,8.272,1.905
				c2.618,1.069,5.065,2.65,6.949,4.766c1.879,2.097,3.249,4.647,3.805,7.395c0.563,2.736,0.217,5.682-1.056,8.124
				c-0.603,1.235-1.396,2.36-2.317,3.336c-0.904,0.994-1.924,1.859-3.006,2.602c-2.151,1.517-4.534,2.568-6.947,3.346
				c-9.785,2.821-19.837,1.413-27.927-2.303c-8.158-3.689-14.514-9.641-18.347-16.198c-1.94-3.271-3.269-6.675-4.09-9.988
				c-0.819-3.312-1.266-6.518-1.301-9.525c-0.118-6.02,1.037-11.151,2.444-15.114c1.431-3.977,3.154-6.791,4.374-8.632
				c0.634-0.907,1.179-1.555,1.525-2.003c0.354-0.442,0.546-0.66,0.567-0.643c0.021,0.017-0.128,0.267-0.439,0.739
				c-0.302,0.478-0.802,1.152-1.389,2.079c-1.125,1.881-2.74,4.71-4.062,8.659c-1.299,3.934-2.344,8.995-2.145,14.89
				c0.075,2.945,0.554,6.075,1.389,9.296c0.837,3.223,2.167,6.522,4.079,9.677c3.777,6.323,9.989,12.049,17.928,15.579
				c3.958,1.756,8.327,3.016,12.926,3.419c4.581,0.417,9.41,0.059,14.038-1.307c2.289-0.749,4.543-1.756,6.536-3.175
				c1.005-0.694,1.94-1.495,2.758-2.401c0.836-0.89,1.541-1.901,2.07-2.996c1.122-2.171,1.412-4.726,0.911-7.162
				c-0.499-2.444-1.743-4.766-3.46-6.672c-1.711-1.916-3.948-3.364-6.396-4.361c-2.451-0.999-5.111-1.556-7.818-1.786
				c-5.43-0.369-11.025,0.379-16.295,2.314c-10.548,3.911-19.106,11.868-24.129,21.16c-2.52,4.66-4.131,9.687-4.738,14.751
				c-0.623,5.062-0.344,10.114,0.617,14.895c1.919,9.595,6.544,18.038,12.331,24.502c2.898,3.241,6.083,6.022,9.424,8.291
				c3.372,2.23,6.853,3.982,10.293,5.362c3.457,1.348,6.884,2.25,10.161,2.923c3.295,0.564,6.436,0.971,9.391,1.021
				c5.909,0.204,11.003-0.44,15.078-1.286c1.024-0.198,1.987-0.401,2.875-0.659c0.893-0.238,1.729-0.46,2.506-0.667
				c1.521-0.512,2.828-0.9,3.859-1.282c1.02-0.388,1.8-0.686,2.341-0.892C397.643,419.285,397.922,419.198,397.933,419.223z"/>
		</g>
		<g>
			<path style="fill:#263238;" d="M335.11,277.005c0.031,0.082-1.163,0.547-2.999,1.478c-1.836,0.927-4.288,2.382-6.731,4.348
				c-2.438,1.974-4.377,4.066-5.671,5.665c-1.297,1.598-2.003,2.667-2.076,2.62c-0.03-0.019,0.117-0.304,0.412-0.805
				c0.289-0.504,0.756-1.205,1.374-2.041c1.232-1.674,3.159-3.84,5.634-5.843c2.479-1.996,5.003-3.423,6.898-4.275
				c0.948-0.428,1.731-0.737,2.285-0.913C334.788,277.056,335.098,276.971,335.11,277.005z"/>
		</g>
		<g>
			<path style="fill:#263238;" d="M326.143,290.467c-0.022-0.013,0.146-0.335,0.663-0.711c0.506-0.36,1.428-0.761,2.59-0.566
				c1.144,0.186,2.415,1.137,2.865,2.645c0.466,1.506-0.206,3.414-1.723,4.4c-0.753,0.497-1.683,0.681-2.518,0.548
				c-0.836-0.13-1.592-0.501-2.164-1.019c-0.578-0.509-0.98-1.17-1.143-1.84c-0.176-0.67-0.122-1.325,0.024-1.879
				c0.298-1.125,0.983-1.834,1.493-2.191c0.526-0.358,0.88-0.42,0.886-0.397c0.019,0.043-0.303,0.171-0.762,0.557
				c-0.445,0.384-1.034,1.082-1.26,2.118c-0.258,1.011,0.004,2.379,1.078,3.271c1.006,0.902,2.759,1.292,4.081,0.395
				c1.322-0.857,1.928-2.537,1.545-3.832c-0.367-1.325-1.471-2.21-2.476-2.415c-1.028-0.22-1.902,0.087-2.409,0.376
				C326.396,290.228,326.177,290.498,326.143,290.467z"/>
		</g>
		<g>
			<g>
				<g>
					<g>
						<g>
							<path style="fill:#FFBE9D;" d="M336.957,195.105c-1.931-3.829-3.626-7.26-3.626-7.26s7.203-4.423,4.072-12.164
								c-3.13-7.742-11.871-24.869-11.871-24.869l-17.039-0.159l-9.702,18.767l18.18,35.805c2.752,5.421,9.326,7.656,14.813,5.038v0
								C337.454,207.556,339.786,200.715,336.957,195.105z"/>
							<g>
								<path style="fill:#263238;" d="M329.944,164.231c0.254,0.532,0.029,1.169-0.503,1.423c-0.532,0.254-1.168,0.028-1.422-0.504
									c-0.254-0.532-0.029-1.168,0.502-1.422C329.053,163.474,329.69,163.699,329.944,164.231z"/>
								<g>
									<path style="fill:#263238;" d="M330.375,162.736c-0.064,0.184-1.065-0.081-2.128,0.357
										c-1.069,0.425-1.603,1.31-1.777,1.223c-0.083-0.037-0.064-0.327,0.165-0.724c0.224-0.392,0.687-0.873,1.352-1.142
										c0.664-0.269,1.332-0.244,1.766-0.118C330.193,162.458,330.409,162.653,330.375,162.736z"/>
								</g>
							</g>
							<g>
								<path style="fill:#263238;" d="M318.787,169.557c0.254,0.532,0.029,1.169-0.503,1.423c-0.531,0.253-1.168,0.028-1.422-0.504
									c-0.254-0.532-0.028-1.169,0.502-1.422C317.897,168.799,318.534,169.025,318.787,169.557z"/>
								<g>
									<path style="fill:#263238;" d="M318.885,168.221c-0.064,0.184-1.065-0.081-2.127,0.357
										c-1.069,0.425-1.604,1.311-1.778,1.223c-0.083-0.037-0.063-0.328,0.165-0.724c0.224-0.392,0.688-0.873,1.353-1.143
										c0.664-0.269,1.332-0.244,1.765-0.118C318.703,167.943,318.919,168.137,318.885,168.221z"/>
								</g>
							</g>
							<g>
								<path style="fill:#263238;" d="M326.803,175.191c-0.03-0.056,0.582-0.443,1.595-1.021c0.257-0.14,0.5-0.302,0.462-0.524
									c-0.025-0.237-0.272-0.494-0.547-0.767c-0.549-0.573-1.128-1.177-1.735-1.81c-1.222-1.293-2.311-2.481-3.08-3.357
									c-0.772-0.875-1.225-1.44-1.177-1.483c0.046-0.044,0.583,0.44,1.415,1.259c0.832,0.818,1.957,1.971,3.178,3.263
									c0.598,0.642,1.168,1.253,1.71,1.835c0.243,0.277,0.575,0.565,0.619,1.034c0.018,0.236-0.112,0.465-0.263,0.583
									c-0.149,0.125-0.3,0.191-0.43,0.255C327.498,174.964,326.833,175.247,326.803,175.191z"/>
							</g>
							<path style="fill:#FFFFFF;" d="M323.848,177.806c1.128,0.111,3.72,0.342,5.834-0.667c0,0-0.409,2.497-2.97,2.616
								C324.053,179.877,323.848,177.806,323.848,177.806z"/>
							<path style="fill:#EB996E;" d="M333.336,187.779c0,0-5.039,2.476-11.573,1.392c0,0,5.074,4.402,12.469,0.49L333.336,187.779z
								"/>
							<path style="fill:#263238;" d="M290.66,180.989l0.145-0.076c-0.5-1.467-1.173-3.381-1.359-4.35
								c-3.384-17.646,9.008-27.151,11.736-28.453c2.924-1.396,7.275-5.447,18.432-1.258c1.895,0.712,3.459,1.602,4.76,2.585
								c3.043,1.493,5.306,3.658,6.64,5.467c1.548,2.075,2.048,3.614,1.957,3.65c-0.14,0.073-0.844-1.342-2.467-3.239
								c-0.804-0.95-1.876-2.007-3.189-3c3.393,4.333,3.35,9.012,3.35,9.012l-1.802-0.558l-12.361,2.413
								c-0.546-3.385-3.588-6.458-5.133-7.828l-0.1-0.031c3.181,12.308-8.666,19.399-8.666,19.399l9.648,21.203
								C296.109,199.788,290.66,180.989,290.66,180.989z"/>
							<g>
								<path style="fill:#FFBE9D;" d="M307.401,186.877c-0.775,1.397-2.693,1.908-4.187,1.341
									c-1.494-0.568-2.537-2.011-2.935-3.558c-0.241-0.937-0.262-1.978,0.206-2.825c0.468-0.846,2.567-1.719,3.481-1.403
									L307.401,186.877z"/>
								<g>
									<path style="fill:#EB996E;" d="M305.094,186.416c-0.039-0.102-0.448,0.017-1.052-0.099
										c-0.598-0.103-1.373-0.532-1.674-1.388c-0.326-0.848-0.014-1.677,0.374-2.143c0.384-0.48,0.773-0.654,0.737-0.757
										c-0.014-0.083-0.511-0.087-1.098,0.402c-0.579,0.439-1.134,1.6-0.685,2.745c0.401,1.163,1.576,1.686,2.302,1.645
										C304.761,186.814,305.137,186.488,305.094,186.416z"/>
								</g>
							</g>
						</g>
					</g>
				</g>
				<g>
					<path style="fill:#263238;" d="M349.895,159.393c0,0-0.051-0.195-0.124-0.577c-0.074-0.402-0.178-0.965-0.313-1.698
						c-0.067-0.375-0.142-0.792-0.224-1.251c-0.103-0.456-0.261-0.944-0.406-1.478c-0.3-1.067-0.611-2.308-1.188-3.63
						c-0.962-2.708-2.652-5.844-5.116-9.088c-2.479-3.227-5.893-6.502-10.323-9.102c-4.414-2.572-9.837-4.565-15.871-4.919
						c-1.506-0.036-3.039-0.165-4.592,0.009c-0.775,0.064-1.563,0.08-2.346,0.185c-0.78,0.133-1.565,0.266-2.356,0.401
						c-0.394,0.074-0.796,0.119-1.187,0.218l-1.173,0.324c-0.781,0.226-1.581,0.414-2.363,0.674c-1.53,0.616-3.13,1.129-4.61,1.962
						c-1.546,0.703-2.963,1.674-4.428,2.601c-0.708,0.499-1.377,1.062-2.073,1.594c-0.713,0.514-1.348,1.126-1.985,1.742
						c-1.338,1.17-2.464,2.569-3.656,3.928c-1.048,1.474-2.16,2.926-3.02,4.561l-0.694,1.198l-0.582,1.262l-0.581,1.27
						c-0.204,0.42-0.386,0.85-0.524,1.299c-0.305,0.885-0.612,1.775-0.919,2.667c-0.219,0.918-0.439,1.84-0.66,2.765
						c-0.745,3.73-0.926,7.619-0.522,11.508c0.507,3.878,1.582,7.622,3.17,11.079c0.429,0.849,0.856,1.695,1.282,2.538
						c0.506,0.797,1.01,1.591,1.512,2.382c0.238,0.405,0.513,0.782,0.81,1.143l0.859,1.101l0.859,1.094l0.953,1.005
						c1.216,1.391,2.634,2.548,3.995,3.739c1.474,1.047,2.894,2.148,4.466,2.976c0.763,0.452,1.523,0.9,2.335,1.236
						c0.801,0.356,1.582,0.749,2.386,1.071c1.64,0.563,3.244,1.179,4.911,1.505c1.633,0.468,3.309,0.597,4.94,0.842
						c0.821,0.072,1.643,0.07,2.456,0.109l1.216,0.044c0.404,0.006,0.805-0.044,1.206-0.063c0.801-0.052,1.596-0.104,2.385-0.155
						c0.786-0.08,1.555-0.247,2.325-0.364c1.551-0.19,3.012-0.672,4.469-1.055c5.788-1.743,10.602-4.937,14.3-8.462
						c3.707-3.555,6.27-7.531,7.934-11.245c1.645-3.727,2.563-7.168,2.872-10.025c0.255-1.419,0.27-2.699,0.315-3.806
						c0.017-0.553,0.058-1.065,0.053-1.532c-0.026-0.465-0.05-0.888-0.072-1.268c-0.038-0.744-0.068-1.316-0.089-1.723
						C349.89,159.594,349.895,159.393,349.895,159.393s0.031,0.197,0.066,0.584c0.033,0.408,0.08,0.98,0.141,1.723
						c0.029,0.381,0.061,0.805,0.097,1.271c0.014,0.469-0.018,0.982-0.028,1.538c-0.029,1.112-0.028,2.399-0.269,3.828
						c-0.28,2.877-1.174,6.35-2.807,10.118c-1.652,3.755-4.215,7.783-7.943,11.391c-3.719,3.578-8.576,6.827-14.428,8.609
						c-1.473,0.393-2.951,0.883-4.52,1.081c-0.778,0.121-1.557,0.291-2.353,0.374c-0.799,0.054-1.604,0.109-2.414,0.164
						c-0.406,0.02-0.812,0.071-1.221,0.066l-1.232-0.041c-0.823-0.037-1.656-0.034-2.488-0.105
						c-1.653-0.243-3.351-0.372-5.007-0.842c-1.69-0.328-3.317-0.948-4.98-1.517c-0.816-0.325-1.608-0.721-2.42-1.081
						c-0.824-0.34-1.595-0.792-2.369-1.249c-1.595-0.838-3.036-1.951-4.532-3.012c-1.382-1.205-2.82-2.378-4.055-3.786l-0.967-1.019
						l-0.872-1.108l-0.872-1.116c-0.301-0.366-0.581-0.748-0.822-1.159c-0.51-0.802-1.021-1.607-1.535-2.416
						c-0.432-0.855-0.867-1.713-1.302-2.574c-1.613-3.506-2.705-7.305-3.218-11.238c-0.411-3.944-0.227-7.891,0.532-11.674
						c0.225-0.938,0.449-1.873,0.671-2.804c0.312-0.905,0.624-1.807,0.933-2.705c0.14-0.455,0.325-0.891,0.532-1.317l0.59-1.288
						l0.592-1.279l0.704-1.215c0.875-1.656,2.003-3.129,3.068-4.621c1.209-1.378,2.353-2.794,3.711-3.978
						c0.647-0.624,1.293-1.242,2.015-1.763c0.707-0.538,1.386-1.107,2.104-1.612c1.486-0.938,2.925-1.918,4.493-2.628
						c1.502-0.841,3.124-1.359,4.675-1.978c0.793-0.262,1.603-0.452,2.396-0.678l1.189-0.325c0.397-0.1,0.804-0.144,1.203-0.218
						c0.801-0.134,1.597-0.267,2.386-0.4c0.793-0.104,1.59-0.118,2.375-0.181c1.572-0.171,3.124-0.037,4.647,0.005
						c6.105,0.378,11.583,2.414,16.029,5.033c4.463,2.647,7.889,5.971,10.366,9.242c2.462,3.287,4.135,6.459,5.074,9.193
						c0.565,1.335,0.863,2.587,1.148,3.662c0.138,0.539,0.288,1.031,0.383,1.49c0.073,0.462,0.14,0.882,0.2,1.26
						c0.113,0.738,0.2,1.305,0.262,1.709C349.879,159.194,349.895,159.393,349.895,159.393z"/>
				</g>
				<path style="fill:#263238;" d="M292.347,157.466c1.372-0.744,2.357-2.163,2.574-3.709c0.217-1.546-0.34-3.181-1.456-4.274
					c-2.062-2.02-5.639-1.831-7.953-0.104c-2.314,1.726-3.509,4.615-3.911,7.474c-0.232,1.65-0.227,3.381,0.395,4.927
					c0.622,1.546,1.949,2.879,3.591,3.166c1.83,0.32,3.686-0.706,4.867-2.14s1.817-3.228,2.431-4.981"/>
				<g>
					<path style="fill:#455A64;" d="M334.401,143.58c-0.07,0.077-1.381-1.21-3.79-2.897c-1.198-0.851-2.701-1.754-4.427-2.641
						c-1.74-0.858-3.712-1.683-5.852-2.346c-2.147-0.64-4.246-1.05-6.169-1.305c-1.928-0.222-3.679-0.308-5.148-0.267
						c-2.941,0.062-4.745,0.403-4.761,0.3c-0.006-0.035,0.44-0.135,1.256-0.287c0.407-0.082,0.908-0.166,1.496-0.217
						c0.586-0.057,1.254-0.153,1.997-0.164c1.484-0.089,3.259-0.041,5.216,0.158c1.953,0.232,4.086,0.634,6.265,1.283
						c2.171,0.672,4.167,1.523,5.919,2.417c1.737,0.923,3.239,1.87,4.423,2.769c0.612,0.422,1.113,0.873,1.569,1.247
						c0.46,0.37,0.829,0.718,1.122,1.012C334.11,143.223,334.426,143.554,334.401,143.58z"/>
				</g>
				<g>
					<path style="fill:#455A64;" d="M337.619,148.989c-0.146,0.034-0.441-0.789-1.001-1.681c-0.551-0.898-1.158-1.527-1.063-1.643
						c0.079-0.112,0.899,0.385,1.505,1.368C337.672,148.012,337.755,148.967,337.619,148.989z"/>
				</g>
				<g>
					<path style="fill:#263238;" d="M282.714,156.924c0.087-0.012,0.114,1.39-0.648,3.423c-0.338,1.015-0.824,2.21-0.927,3.577
						c-0.052,0.68,0.036,1.393,0.314,2.066c0.277,0.664,0.764,1.279,1.447,1.58c0.677,0.312,1.458,0.294,2.153,0.083
						c0.7-0.209,1.33-0.576,1.863-1.001c1.06-0.87,1.775-1.941,2.243-2.873c0.93-1.905,0.917-3.286,1.022-3.266
						c0.03,0.001,0.06,0.337-0.003,0.942c-0.067,0.602-0.24,1.478-0.685,2.48c-0.448,0.995-1.15,2.13-2.273,3.089
						c-0.566,0.469-1.24,0.877-2.02,1.118c-0.77,0.243-1.695,0.281-2.516-0.098c-0.83-0.367-1.398-1.106-1.702-1.858
						c-0.308-0.759-0.391-1.567-0.32-2.298c0.142-1.474,0.683-2.672,1.06-3.668c0.397-0.994,0.665-1.808,0.793-2.388
						C282.646,157.254,282.674,156.922,282.714,156.924z"/>
				</g>
			</g>
			<path style="fill:#E8505B;" d="M299.404,213.685c0,0,44.039,80.76,51.308,89.739l59.432-26.46l-36.027-61.812
				c-6.63-11.375-18.397-18.931-31.533-19.826c-0.14-0.01-0.281-0.019-0.422-0.027C328.051,194.445,297.266,209.752,299.404,213.685
				z"/>
			<g>
				<path style="fill:#263238;" d="M392.134,246.068c0.003,0.007-0.065,0.044-0.202,0.111c-0.161,0.075-0.362,0.17-0.612,0.287
					c-0.573,0.258-1.37,0.615-2.386,1.072c-2.121,0.931-5.154,2.264-8.943,3.928c-3.83,1.665-8.42,3.66-13.596,5.911
					c-2.595,1.123-5.337,2.31-8.202,3.551c-0.717,0.31-1.442,0.623-2.174,0.939c-0.785,0.332-1.775,0.285-2.529-0.154
					c-0.769-0.413-1.373-1.04-1.889-1.712c-0.516-0.68-0.943-1.412-1.302-2.208l0.017,0.033c-2.598-4.247-5.251-8.866-7.823-13.717
					c-2.028-3.82-3.908-7.602-5.639-11.294c-0.865-1.848-1.698-3.664-2.482-5.47c-0.77-1.807-1.424-3.667-1.579-5.583
					c-0.177-1.91,0.348-3.852,1.414-5.328c1.048-1.492,2.412-2.62,3.755-3.61c2.71-1.961,5.421-3.524,8.01-4.697
					c5.176-2.377,9.727-3.34,12.857-3.791c1.572-0.214,2.801-0.312,3.634-0.351c0.394-0.013,0.707-0.024,0.949-0.032
					c0.214-0.004,0.323-0.002,0.324,0.007c0,0.009-0.108,0.025-0.321,0.046c-0.241,0.021-0.552,0.049-0.944,0.084
					c-0.829,0.072-2.051,0.203-3.611,0.446c-3.107,0.51-7.616,1.523-12.732,3.925c-2.558,1.185-5.236,2.753-7.908,4.71
					c-1.322,0.985-2.644,2.097-3.635,3.523c-1.005,1.414-1.482,3.207-1.312,5.031c0.153,1.827,0.791,3.64,1.559,5.426
					c0.781,1.788,1.621,3.607,2.486,5.448c1.733,3.682,3.613,7.455,5.637,11.267c2.566,4.841,5.209,9.454,7.793,13.698l0.007,0.011
					l0.01,0.022c0.68,1.464,1.623,2.925,2.956,3.681c0.666,0.379,1.436,0.418,2.131,0.136c0.733-0.314,1.458-0.624,2.175-0.931
					c2.869-1.227,5.614-2.4,8.212-3.51c5.19-2.209,9.792-4.168,13.632-5.802c3.812-1.606,6.864-2.891,8.998-3.79
					c1.03-0.424,1.837-0.756,2.418-0.995c0.257-0.101,0.464-0.182,0.629-0.247C392.057,246.085,392.131,246.061,392.134,246.068z"/>
			</g>
			<g style="opacity:0.7;">
				<path style="fill:#FFFFFF;" d="M348.122,223.784c0,1.53-1.24,2.77-2.77,2.77c-1.53,0-2.77-1.24-2.77-2.77s1.24-2.77,2.77-2.77
					C346.882,221.014,348.122,222.254,348.122,223.784z"/>
			</g>
			<g style="opacity:0.7;">
				<path style="fill:#FFFFFF;" d="M353.662,235.673c0,1.53-1.24,2.77-2.77,2.77c-1.53,0-2.77-1.24-2.77-2.77s1.24-2.77,2.77-2.77
					C352.422,232.903,353.662,234.144,353.662,235.673z"/>
			</g>
			<g style="opacity:0.7;">
				<circle style="fill:#FFFFFF;" cx="357.545" cy="247.243" r="2.77"/>
			</g>
			<g>
				<path style="fill:#263238;" d="M365.798,214.337c0.031,0.063-0.725,0.514-1.983,1.174c-1.258,0.66-3.02,1.527-4.993,2.422
					c-1.975,0.895-3.787,1.65-5.113,2.161c-1.326,0.511-2.163,0.784-2.19,0.718c-0.028-0.068,0.759-0.46,2.046-1.057
					c1.473-0.671,3.169-1.443,5.042-2.296c1.875-0.846,3.573-1.613,5.048-2.279C364.952,214.605,365.766,214.271,365.798,214.337z"
					/>
			</g>
			<g>
				<path style="fill:#263238;" d="M373.024,226.034c0.026,0.069-0.853,0.464-2.282,1.074c-1.602,0.681-3.493,1.486-5.583,2.375
					c-2.083,0.906-3.968,1.726-5.564,2.421c-1.425,0.618-2.316,0.984-2.348,0.918c-0.031-0.063,0.804-0.546,2.192-1.252
					c1.388-0.705,3.333-1.626,5.515-2.566c2.182-0.938,4.188-1.717,5.655-2.239C372.075,226.242,373,225.968,373.024,226.034z"/>
			</g>
			<g>
				<path style="fill:#263238;" d="M377.46,239.054c0.056,0.133-2.804,1.52-6.387,3.099c-3.584,1.579-6.538,2.753-6.598,2.622
					c-0.06-0.131,2.799-1.518,6.388-3.099C374.45,240.096,377.404,238.922,377.46,239.054z"/>
			</g>
			<path style="fill:#E8505B;" d="M312.672,204.258c0,0-0.851-2.349,1.59-4.368c2.44-2.019,21.68-6.802,21.68-6.802
				s5.28-0.774,6.64,2.239L312.672,204.258z"/>
			<polygon style="opacity:0.2;" points="350.711,273.987 396.111,252.891 393.684,248.726 			"/>
			<g style="opacity:0.2;">
				<path d="M342.116,196.222c0.018,0.024-0.286,0.312-0.919,0.727c-0.631,0.415-1.603,0.933-2.866,1.41
					c-1.261,0.484-2.8,0.925-4.497,1.425c-1.7,0.497-3.573,1.034-5.554,1.549c-3.961,1.041-7.616,1.738-10.286,2.04
					c-1.335,0.155-2.42,0.229-3.17,0.257c-0.751,0.02-1.166,0.014-1.168-0.022c-0.002-0.036,0.409-0.098,1.152-0.18
					c0.743-0.09,1.816-0.219,3.136-0.419c2.642-0.394,6.257-1.142,10.204-2.179c1.963-0.533,3.834-1.04,5.554-1.506
					c1.707-0.475,3.246-0.877,4.503-1.31C340.738,197.172,342.069,196.149,342.116,196.222z"/>
			</g>
			<g style="opacity:0.2;">
				<path d="M319.52,202.676c-0.078,0.118-1.049-0.747-1.17-2.244c-0.139-1.496,0.668-2.515,0.765-2.412
					c0.133,0.073-0.376,1.066-0.246,2.367C318.966,201.691,319.639,202.582,319.52,202.676z"/>
			</g>
			<g style="opacity:0.2;">
				<path d="M326.486,201.872c-0.067,0.119-1.248-0.723-1.762-2.353c-0.532-1.625-0.062-2.997,0.061-2.939
					c0.153,0.026-0.052,1.313,0.435,2.78C325.678,200.835,326.594,201.762,326.486,201.872z"/>
			</g>
			<g style="opacity:0.2;">
				<path d="M333.816,199.093c-0.151,0.028-0.44-1.156-1.192-2.417c-0.737-1.271-1.63-2.099-1.532-2.217
					c0.073-0.113,1.184,0.586,1.981,1.954C333.88,197.773,333.951,199.085,333.816,199.093z"/>
			</g>
		</g>
		<g>
			<g>
				<path style="fill:#E8505B;" d="M398.879,280.442c0,0,92.771,18.191,94.724,28.441c1.952,10.251-2.026,100.832-2.026,100.832
					l-26.798,0.535l-2.904-78.913l-111.163-29.064L398.879,280.442z"/>
				<path style="opacity:0.2;" d="M398.879,280.442c0,0,92.771,18.191,94.724,28.441c1.952,10.251-2.026,100.832-2.026,100.832
					l-26.798,0.535l-2.904-78.913l-111.163-29.064L398.879,280.442z"/>
			</g>
			<g>
				<path style="fill:#E8505B;" d="M492.434,388.535l0.105,18.521c0,0,15.919-3.22,14.618,3.195
					c-0.539,2.655-41.476,14.759-42.103,14.188l-0.717-26.18L492.434,388.535z"/>
				<path style="opacity:0.4;" d="M492.434,388.535l0.105,18.521c0,0,15.919-3.22,14.618,3.195
					c-0.539,2.655-41.476,14.759-42.103,14.188l-0.717-26.18L492.434,388.535z"/>
				<g>
					<path style="fill:#263238;" d="M506.21,411.078c-0.056,0.027-0.154-0.655-0.942-1.475c-0.39-0.403-0.962-0.813-1.703-1.108
						c-0.738-0.297-1.654-0.442-2.665-0.433c-4.058,0.265-9.705,1.318-15.648,3.269c-5.964,1.949-11.043,4.552-14.583,6.629
						c-1.764,1.053-3.163,1.957-4.12,2.595c-0.953,0.645-1.491,0.989-1.512,0.96c-0.021-0.029,0.476-0.428,1.396-1.126
						c0.924-0.691,2.297-1.645,4.046-2.744c3.509-2.168,8.602-4.844,14.61-6.808c6.004-1.966,11.655-2.966,15.813-3.142
						c1.047,0.015,2.003,0.191,2.775,0.533c0.77,0.338,1.353,0.794,1.739,1.239c0.394,0.442,0.59,0.867,0.693,1.155
						C506.213,410.911,506.221,411.076,506.21,411.078z"/>
				</g>
				<g>
					<path style="fill:#263238;" d="M492.39,393.547c0.015,0.033-0.351,0.239-1.027,0.584c-0.675,0.347-1.664,0.824-2.895,1.394
						c-2.461,1.142-5.902,2.634-9.762,4.133c-3.862,1.498-7.409,2.718-9.996,3.535c-1.294,0.409-2.345,0.724-3.078,0.924
						c-0.732,0.201-1.141,0.296-1.152,0.262c-0.011-0.034,0.378-0.194,1.09-0.455c0.817-0.292,1.827-0.653,3.022-1.08
						c2.553-0.906,6.072-2.177,9.925-3.672c3.851-1.496,7.306-2.931,9.802-3.984c1.17-0.491,2.159-0.906,2.959-1.242
						C491.98,393.658,492.375,393.514,492.39,393.547z"/>
				</g>
				<g>
					<path style="fill:#263238;" d="M475.613,404.116c-0.024-0.015,0.02-0.17,0.244-0.338c0.219-0.165,0.643-0.294,1.134-0.157
						c0.241,0.07,0.499,0.208,0.707,0.445c0.201,0.244,0.326,0.561,0.344,0.904c0.039,0.676-0.312,1.441-1.022,1.825
						c-0.699,0.366-1.533,0.294-2.089-0.125c-0.275-0.206-0.475-0.506-0.536-0.815c-0.066-0.304-0.029-0.59,0.051-0.826
						c0.164-0.479,0.51-0.76,0.771-0.845c0.266-0.088,0.418-0.034,0.417-0.007c0.003,0.043-0.138,0.066-0.328,0.189
						c-0.187,0.119-0.417,0.377-0.506,0.765c-0.089,0.385-0.012,0.874,0.414,1.151c0.398,0.28,1.049,0.327,1.561,0.053
						c0.507-0.266,0.799-0.852,0.788-1.347c0.004-0.515-0.318-0.88-0.688-1.018c-0.368-0.146-0.712-0.102-0.918-0.016
						C475.746,404.041,475.645,404.143,475.613,404.116z"/>
				</g>
				<g>
					<path style="fill:#263238;" d="M469.932,423.602c-0.142-0.024-0.038-1.356,0.232-2.975c0.27-1.62,0.604-2.914,0.745-2.89
						c0.142,0.024,0.038,1.356-0.232,2.976C470.408,422.332,470.074,423.626,469.932,423.602z"/>
				</g>
				<g>
					<path style="fill:#263238;" d="M474.029,422.434c-0.141-0.028,0.073-1.715,0.479-3.768c0.406-2.054,0.849-3.696,0.99-3.668
						c0.141,0.028-0.073,1.715-0.479,3.769C474.613,420.819,474.17,422.462,474.029,422.434z"/>
				</g>
				<g>
					<path style="fill:#263238;" d="M478.458,421.208c-0.142-0.026,0.073-1.842,0.478-4.056c0.406-2.215,0.849-3.989,0.991-3.963
						c0.141,0.026-0.073,1.842-0.478,4.057C479.043,419.46,478.6,421.234,478.458,421.208z"/>
				</g>
				<g>
					<path style="fill:#263238;" d="M483.54,419.682c-0.142-0.024,0.072-1.957,0.478-4.317c0.406-2.36,0.849-4.253,0.991-4.229
						c0.142,0.024-0.072,1.957-0.478,4.317C484.125,417.813,483.682,419.706,483.54,419.682z"/>
				</g>
				<g>
					<path style="fill:#263238;" d="M488.35,418.193c-0.142-0.024,0.072-1.957,0.478-4.316c0.406-2.36,0.849-4.253,0.991-4.229
						c0.142,0.024-0.072,1.957-0.478,4.317C488.936,416.324,488.492,418.218,488.35,418.193z"/>
				</g>
				<g>
					<path style="fill:#263238;" d="M493.593,416.269c-0.141-0.027,0.073-1.771,0.479-3.895c0.406-2.125,0.849-3.825,0.99-3.798
						c0.141,0.027-0.073,1.771-0.479,3.895C494.178,414.596,493.735,416.296,493.593,416.269z"/>
				</g>
				<g>
					<path style="fill:#263238;" d="M498.837,414.293c-0.14-0.032,0.075-1.514,0.48-3.31c0.406-1.797,0.848-3.228,0.988-3.196
						c0.14,0.032-0.075,1.514-0.48,3.311C499.419,412.894,498.977,414.325,498.837,414.293z"/>
				</g>
			</g>
		</g>
		<g>
			<path style="fill:#263238;" d="M420.074,408.428c0.206,0.379-3.064,2.555-7.302,4.859c-4.24,2.305-7.843,3.865-8.049,3.486
				c-0.206-0.379,3.063-2.554,7.303-4.859C416.264,409.61,419.868,408.049,420.074,408.428z"/>
		</g>
		<g>
			<g>
				<g>
					<path style="fill:#E8505B;" d="M466.604,190.119l-0.036-0.062c5.151-2.214,10.816-4.782,13.743-6.538
						c6.032-3.619,5.715-4.164,5.174-4.794c-1.453-1.694-10.851,5.964-9.786,3.147c1.066-2.816,12.582-8.029,10.99-9.737
						c-2.076-2.226-11.765,5.972-12.637,6.605c-0.847,0.615-1.816-0.605-1-1.134c1.175-0.761,13.318-9.062,11.301-11.267
						c-1.118-1.222-3.126,0.99-3.126,0.99s-10.789,8.603-11.706,7.529c-0.932-1.089,5.232-6.353,7.436-7.981
						c2.178-1.608,2.299-3.298,0.785-3.672c-1.032-0.254-7.9,4.573-10.042,6.234c-2.142,1.661-7.936,6.321-6.948,1.701
						c0.987-4.622,0.004-8.545-1-9.422c-1.004-0.877-2.59,0.202-2.268,1.633c0.26,1.157,0.095,3.219-0.092,4.763
						c-0.155,1.274-0.516,2.516-1.087,3.665c-0.668,1.339-1.285,2.446-1.834,3.375c0,0-1.578,2.448-0.816,4.925
						c0.762,2.477,9.716,11.208,9.716,11.208L466.604,190.119z"/>
				</g>
			</g>
			<g style="opacity:0.7;">
				<g>
					<path style="fill:#FFFFFF;" d="M466.604,190.119l-0.036-0.062c5.151-2.214,10.816-4.782,13.743-6.538
						c6.032-3.619,5.715-4.164,5.174-4.794c-1.453-1.694-10.851,5.964-9.786,3.147c1.066-2.816,12.582-8.029,10.99-9.737
						c-2.076-2.226-11.765,5.972-12.637,6.605c-0.847,0.615-1.816-0.605-1-1.134c1.175-0.761,13.318-9.062,11.301-11.267
						c-1.118-1.222-3.126,0.99-3.126,0.99s-10.789,8.603-11.706,7.529c-0.932-1.089,5.232-6.353,7.436-7.981
						c2.178-1.608,2.299-3.298,0.785-3.672c-1.032-0.254-7.9,4.573-10.042,6.234c-2.142,1.661-7.936,6.321-6.948,1.701
						c0.987-4.622,0.004-8.545-1-9.422c-1.004-0.877-2.59,0.202-2.268,1.633c0.26,1.157,0.095,3.219-0.092,4.763
						c-0.155,1.274-0.516,2.516-1.087,3.665c-0.668,1.339-1.285,2.446-1.834,3.375c0,0-1.578,2.448-0.816,4.925
						c0.762,2.477,9.716,11.208,9.716,11.208L466.604,190.119z"/>
				</g>
			</g>
			<path style="fill:#E8505B;" d="M349.661,197.046c2.076,1.557,60.217,3.542,60.217,3.542l37.932-21.364l15.168,14.508
				c0,0-44.276,29.789-49.207,30.827c-4.932,1.038-40.878,0-40.878,0L349.661,197.046z"/>
			<path style="fill:#E8505B;" d="M448.476,180.085l13.096,13.85c0.843,0.892,2.208,1.043,3.226,0.357l0.089-0.06
				c1.29-0.869,1.487-2.691,0.412-3.816l-13.184-13.79c-0.795-0.832-2.055-1.016-3.055-0.447l0,0
				C447.644,176.984,447.358,178.902,448.476,180.085z"/>
			<path style="opacity:0.5;fill:#FFFFFF;" d="M448.476,180.085l13.096,13.85c0.843,0.892,2.208,1.043,3.226,0.357l0.089-0.06
				c1.29-0.869,1.487-2.691,0.412-3.816l-13.184-13.79c-0.795-0.832-2.055-1.016-3.055-0.447l0,0
				C447.644,176.984,447.358,178.902,448.476,180.085z"/>
			<g>
				<path style="fill:#263238;" d="M413.909,224.528c-0.018,0.026-0.337-0.159-0.868-0.558c-0.533-0.397-1.262-1.032-2.061-1.917
					c-1.599-1.747-3.409-4.661-4.07-8.28c-0.658-3.621,0.009-6.987,0.89-9.185c0.436-1.11,0.895-1.961,1.253-2.52
					c0.357-0.56,0.59-0.845,0.616-0.828c0.087,0.05-0.754,1.265-1.523,3.474c-0.775,2.186-1.36,5.459-0.723,8.965
					c0.639,3.505,2.34,6.361,3.836,8.133C412.757,223.61,413.972,224.45,413.909,224.528z"/>
			</g>
			<g>
				<path style="fill:#263238;" d="M458.022,189.385c0.01,0.015-0.144,0.146-0.447,0.382c-0.352,0.266-0.796,0.601-1.341,1.012
					c-1.17,0.872-2.881,2.109-5.009,3.618c-4.256,3.019-10.201,7.098-16.877,11.436c-6.68,4.337-12.824,8.111-17.313,10.771
					c-2.244,1.331-4.07,2.391-5.342,3.106c-0.598,0.331-1.084,0.6-1.47,0.814c-0.339,0.181-0.521,0.269-0.531,0.253
					c-0.009-0.016,0.156-0.133,0.477-0.343c0.373-0.236,0.843-0.533,1.42-0.898c1.301-0.804,3.081-1.903,5.254-3.246
					c4.437-2.74,10.545-6.56,17.22-10.893c6.671-4.335,12.643-8.362,16.951-11.301c2.111-1.44,3.839-2.619,5.102-3.481
					c0.568-0.379,1.031-0.688,1.398-0.933C457.837,189.473,458.011,189.371,458.022,189.385z"/>
			</g>
			<g>
				<path style="fill:#263238;" d="M409.7,220.129c-0.006,0.144-7.682-0.042-17.143-0.415c-9.464-0.373-17.13-0.792-17.124-0.936
					c0.006-0.144,7.68,0.042,17.144,0.415C402.039,219.566,409.706,219.985,409.7,220.129z"/>
			</g>
			<g style="opacity:0.2;">
				<path d="M383.341,224.815c-2.008-6.158-5.892-12.846-9.753-18.047c-3.86-5.201-13.525-9.285-19.997-9.041
					c9.235,4.178,21.441,16.688,25.871,27.088L383.341,224.815z"/>
			</g>
		</g>
		<g>
			<path style="fill:#E8505B;" d="M300.886,211.1c-0.364-1.821-36.397,27.378-51.537,39.739c-4.169,3.404-6.582,8.497-6.582,13.879
				l0,0c0,9.899,8.025,17.924,17.924,17.924h43.885v-22.26h-28.598l36.695-24.173L300.886,211.1z"/>
			<g>
				<g>
					<path style="fill:#E8505B;" d="M310.196,280.169l0.001-0.072c5.555,0.758,11.734,1.477,15.147,1.48
						c7.034,0.008,7.043-0.622,6.904-1.442c-0.372-2.201-12.373-0.482-10.008-2.347c2.365-1.864,14.92-0.396,14.436-2.679
						c-0.631-2.977-13.16-0.946-14.233-0.853c-1.043,0.09-1.245-1.455-0.273-1.487c1.399-0.046,16.083-0.901,15.491-3.83
						c-0.328-1.623-3.189-0.763-3.189-0.763s-13.68,1.811-13.912,0.419c-0.238-1.414,7.758-2.748,10.486-3.007
						c2.696-0.255,3.67-1.642,2.565-2.742c-0.754-0.749-9.127-0.153-11.818,0.166c-2.692,0.319-10.058,1.327-6.831-2.124
						c3.228-3.452,4.408-7.32,3.999-8.589c-0.409-1.269-2.323-1.162-2.785,0.23c-0.374,1.126-1.578,2.808-2.534,4.034
						c-0.789,1.012-1.739,1.89-2.82,2.58c-1.262,0.803-2.362,1.434-3.311,1.947c0,0-2.614,1.285-3.237,3.8
						c-0.623,2.515,2.549,14.613,2.549,14.613L310.196,280.169z"/>
				</g>
			</g>
			<g style="opacity:0.7;">
				<g>
					<path style="fill:#FFFFFF;" d="M310.196,280.169l0.001-0.072c5.555,0.758,11.734,1.477,15.147,1.48
						c7.034,0.008,7.043-0.622,6.904-1.442c-0.372-2.201-12.373-0.482-10.008-2.347c2.365-1.864,14.92-0.396,14.436-2.679
						c-0.631-2.977-13.16-0.946-14.233-0.853c-1.043,0.09-1.245-1.455-0.273-1.487c1.399-0.046,16.083-0.901,15.491-3.83
						c-0.328-1.623-3.189-0.763-3.189-0.763s-13.68,1.811-13.912,0.419c-0.238-1.414,7.758-2.748,10.486-3.007
						c2.696-0.255,3.67-1.642,2.565-2.742c-0.754-0.749-9.127-0.153-11.818,0.166c-2.692,0.319-10.058,1.327-6.831-2.124
						c3.228-3.452,4.408-7.32,3.999-8.589c-0.409-1.269-2.323-1.162-2.785,0.23c-0.374,1.126-1.578,2.808-2.534,4.034
						c-0.789,1.012-1.739,1.89-2.82,2.58c-1.262,0.803-2.362,1.434-3.311,1.947c0,0-2.614,1.285-3.237,3.8
						c-0.623,2.515,2.549,14.613,2.549,14.613L310.196,280.169z"/>
				</g>
			</g>
			<g>
				<path style="fill:#263238;" d="M244.203,257.181c-0.02-0.021,0.316-0.406,0.999-1.029c0.682-0.624,1.741-1.455,3.172-2.296
					c2.817-1.689,7.387-3.265,12.487-2.717c5.099,0.559,9.231,3.053,11.642,5.284c1.228,1.116,2.096,2.144,2.639,2.891
					c0.543,0.748,0.797,1.192,0.773,1.208c-0.09,0.073-1.175-1.69-3.655-3.822c-2.434-2.124-6.494-4.499-11.455-5.043
					c-4.961-0.533-9.433,0.941-12.25,2.52C245.691,255.756,244.277,257.272,244.203,257.181z"/>
			</g>
			<g>
				<path style="fill:#263238;" d="M307.538,229.796c0.084,0.117-8.014,6.054-18.084,13.259
					c-10.074,7.208-18.305,12.954-18.389,12.837c-0.084-0.117,8.012-6.053,18.086-13.26
					C299.221,235.427,307.454,229.679,307.538,229.796z"/>
			</g>
			<g>
				<path style="fill:#263238;" d="M301.052,272.188c0.001,0.018-0.193,0.051-0.564,0.098c-0.429,0.047-0.967,0.106-1.627,0.179
					c-1.414,0.147-3.463,0.326-5.997,0.522c-5.067,0.392-12.079,0.808-19.832,1.037c-7.756,0.225-14.78,0.221-19.862,0.126
					c-2.541-0.047-4.597-0.106-6.016-0.17c-0.663-0.034-1.203-0.061-1.635-0.083c-0.374-0.025-0.569-0.047-0.569-0.065
					c0-0.018,0.197-0.031,0.571-0.04c0.432-0.004,0.973-0.008,1.636-0.014c1.492,0.001,3.53,0.003,6.016,0.004
					c5.079,0.001,12.096-0.053,19.843-0.278c7.745-0.229,14.752-0.586,19.822-0.884c2.482-0.147,4.515-0.268,6.005-0.357
					c0.663-0.033,1.203-0.06,1.635-0.081C300.853,272.168,301.05,272.17,301.052,272.188z"/>
			</g>
			<g style="opacity:0.2;">
				<path d="M279.889,257.911c-0.142-3.55-2.954-6.635-6.313-7.794c-3.358-1.16-7.828-0.105-11.13,1.205
					c5.265,1.532,10.649,4.492,13.593,9.118L279.889,257.911z"/>
			</g>
			<path style="fill:#E8505B;" d="M301.26,261.127l0.492,19.055c0.032,1.227,0.946,2.251,2.162,2.421l0.106,0.015
				c1.541,0.215,2.904-1.009,2.855-2.564l-0.598-19.069c-0.036-1.15-0.85-2.129-1.975-2.374l0,0
				C302.712,258.264,301.218,259.5,301.26,261.127z"/>
			<path style="opacity:0.5;fill:#FFFFFF;" d="M301.26,261.127l0.492,19.055c0.032,1.227,0.946,2.251,2.162,2.421l0.106,0.015
				c1.541,0.215,2.904-1.009,2.855-2.564l-0.598-19.069c-0.036-1.15-0.85-2.129-1.975-2.374l0,0
				C302.712,258.264,301.218,259.5,301.26,261.127z"/>
			<g>
				<path style="fill:#263238;" d="M309.736,238.796c-0.106-0.117,2.335-1.272,4.773-4.633c1.218-1.657,2.328-3.884,3.032-6.509
					c0.324-1.318,0.567-2.728,0.632-4.204c0.054-1.476-0.053-3.006-0.34-4.544c-0.582-3.054-2.049-5.876-4.327-7.331
					c-2.267-1.468-4.838-1.697-6.862-1.605c-2.057,0.108-3.702,0.489-4.836,0.725c-1.134,0.248-1.764,0.385-1.773,0.348
					c-0.004-0.017,0.146-0.075,0.438-0.169c0.292-0.093,0.725-0.223,1.287-0.376c1.123-0.296,2.765-0.736,4.863-0.895
					c2.067-0.138,4.727,0.042,7.145,1.57c1.195,0.762,2.227,1.888,2.985,3.216c0.766,1.327,1.275,2.84,1.591,4.416
					c0.296,1.582,0.402,3.155,0.339,4.669c-0.074,1.515-0.334,2.958-0.678,4.304c-0.746,2.681-1.918,4.941-3.199,6.605
					c-1.274,1.671-2.556,2.814-3.519,3.477c-0.458,0.364-0.875,0.56-1.132,0.726C309.889,238.738,309.745,238.812,309.736,238.796z"
					/>
			</g>
		</g>
		<g>
			<g>
				<path style="fill:#E8505B;" d="M475.785,273.561l-34.8,38.498l-19.434-13.704l32.036-38.197l-84.489,44.634
					c-8.145,4.205-18.153,1.459-23.011-6.314v0c-5.569-8.91-2.146-20.682,7.332-25.218l91.286-43.679
					c13.254-6.342,29.142-2.468,37.989,9.264l0,0C491.339,250.308,486.79,262.365,475.785,273.561z"/>
				<g>
					<path style="fill:#263238;" d="M462.08,249.584c-0.006,0.003-0.04-0.056-0.099-0.174c-0.068-0.139-0.152-0.312-0.256-0.527
						c-0.207-0.47-0.568-1.149-1.148-1.947c-0.561-0.806-1.454-1.692-2.731-2.298c-1.277-0.572-3.002-0.782-4.709-0.217l0.015-0.007
						c-10.43,5.457-27.768,14.528-47.404,24.802c-15.964,8.277-30.414,15.768-40.907,21.208c-5.224,2.68-9.461,4.854-12.424,6.374
						c-1.449,0.731-2.585,1.304-3.39,1.71c-0.37,0.18-0.663,0.323-0.888,0.433c-0.201,0.095-0.306,0.14-0.311,0.132
						c-0.004-0.008,0.093-0.068,0.286-0.179c0.219-0.121,0.504-0.279,0.864-0.479c0.794-0.426,1.915-1.028,3.345-1.796
						c2.945-1.555,7.156-3.779,12.348-6.521c10.475-5.475,24.9-13.014,40.837-21.343c19.679-10.191,37.055-19.19,47.507-24.603
						l0.01-0.005l0.005-0.002c1.821-0.58,3.587-0.329,4.912,0.285c1.316,0.65,2.212,1.582,2.762,2.414
						c0.569,0.826,0.91,1.523,1.094,2.007c0.09,0.222,0.162,0.401,0.22,0.545C462.066,249.518,462.086,249.581,462.08,249.584z"/>
				</g>
				<g>
					<path style="fill:#263238;" d="M466.276,244.406c0.112,0.091-2.877,3.963-6.674,8.648c-3.798,4.687-6.967,8.412-7.079,8.321
						c-0.112-0.091,2.876-3.962,6.674-8.649C462.995,248.041,466.164,244.316,466.276,244.406z"/>
				</g>
				<g>
					<path style="fill:#E8505B;" d="M458.593,292.616L440.07,313.92c0,0,10.568,12.48,8.811,13.951
						c-1.757,1.471-31.081-24.684-31.081-24.684l19.234-24.534L458.593,292.616z"/>
					<path style="opacity:0.4;" d="M458.593,292.616L440.07,313.92c0,0,10.568,12.48,8.811,13.951
						c-1.757,1.471-31.081-24.684-31.081-24.684l19.234-24.534L458.593,292.616z"/>
					<g>
						<path style="fill:#263238;" d="M453.919,298.364c-0.069,0.126-5.273-2.614-11.622-6.12c-6.35-3.507-11.441-6.451-11.371-6.576
							c0.069-0.126,5.272,2.614,11.623,6.121C448.898,295.294,453.989,298.238,453.919,298.364z"/>
					</g>
					<g>
						<path style="fill:#263238;" d="M429.5,298.858c0.036,0.033-0.101,0.183-0.237,0.498c-0.138,0.311-0.241,0.81-0.133,1.403
							c0.114,0.577,0.463,1.279,1.136,1.628c0.661,0.37,1.604,0.179,2.258-0.429c0.659-0.604,0.924-1.529,0.607-2.217
							c-0.295-0.699-0.967-1.103-1.533-1.262c-0.582-0.154-1.088-0.092-1.409,0.022c-0.325,0.11-0.485,0.235-0.515,0.196
							c-0.016-0.016,0.1-0.199,0.435-0.382c0.328-0.185,0.896-0.322,1.574-0.194c0.655,0.136,1.476,0.548,1.889,1.429
							c0.438,0.884,0.099,2.08-0.694,2.791c-0.771,0.734-1.99,0.976-2.836,0.47c-0.845-0.481-1.191-1.332-1.275-1.996
							c-0.074-0.686,0.108-1.241,0.318-1.554C429.294,298.943,429.486,298.841,429.5,298.858z"/>
					</g>
				</g>
			</g>
			<polyline style="opacity:0.2;" points="428.917,273.264 452.926,260.58 465.363,245.533 428.917,273.264 			"/>
		</g>
	</g>
</g>
<g id="Planet">
	<g>
		
			<ellipse transform="matrix(0.9997 -0.0234 0.0234 0.9997 -2.5851 10.9333)" style="fill:#455A64;" cx="466.276" cy="116.019" rx="25.226" ry="25.226"/>
		<path style="fill:#263238;" d="M474.496,106.356c0.054-2.272,1.939-4.069,4.211-4.016c2.272,0.054,4.069,1.939,4.016,4.211
			s-1.939,4.07-4.211,4.016C476.24,110.513,474.443,108.628,474.496,106.356z"/>
		<path style="fill:#263238;" d="M482.725,115.962c0.031-1.321,1.128-2.367,2.449-2.336c1.321,0.031,2.367,1.128,2.336,2.449
			c-0.031,1.321-1.128,2.367-2.449,2.336C483.739,118.38,482.693,117.283,482.725,115.962z"/>
		<path style="fill:#263238;" d="M479.513,123.311c0.487,0.012,0.873,0.416,0.861,0.903c-0.012,0.487-0.416,0.873-0.903,0.861
			c-0.487-0.012-0.873-0.416-0.861-0.903C478.621,123.685,479.026,123.3,479.513,123.311z"/>
	</g>
</g>
<g id="Stars">
	<path style="fill:#455A64;" d="M574.18,169.283l0.552,1.009c0.619,1.132,1.55,2.063,2.682,2.682l1.008,0.552l-1.008,0.552
		c-1.132,0.619-2.063,1.55-2.682,2.682l-0.552,1.009l-0.551-1.009c-0.619-1.132-1.55-2.063-2.682-2.682l-1.008-0.552l1.008-0.552
		c1.132-0.619,2.063-1.55,2.682-2.682L574.18,169.283z"/>
	<path style="fill:#455A64;" d="M137.824,318.873l0.551,1.008c0.619,1.132,1.55,2.063,2.682,2.682l1.008,0.552l-1.008,0.552
		c-1.132,0.619-2.063,1.55-2.682,2.682l-0.551,1.009l-0.552-1.009c-0.619-1.132-1.55-2.063-2.682-2.682l-1.008-0.552l1.008-0.552
		c1.132-0.619,2.063-1.55,2.682-2.682L137.824,318.873z"/>
	<path style="fill:#455A64;" d="M257.465,316.508l0.276,0.504c0.31,0.566,0.775,1.031,1.341,1.341l0.504,0.276l-0.504,0.276
		c-0.566,0.31-1.031,0.775-1.341,1.341l-0.276,0.504l-0.276-0.504c-0.309-0.566-0.775-1.031-1.341-1.341l-0.504-0.276l0.504-0.276
		c0.566-0.309,1.031-0.775,1.341-1.341L257.465,316.508z"/>
	<path style="fill:#455A64;" d="M532.763,314.631l0.276,0.504c0.31,0.566,0.775,1.031,1.341,1.341l0.504,0.276l-0.504,0.276
		c-0.566,0.31-1.031,0.775-1.341,1.341l-0.276,0.504l-0.276-0.504c-0.31-0.566-0.775-1.031-1.341-1.341l-0.504-0.276l0.504-0.276
		c0.566-0.309,1.031-0.775,1.341-1.341L532.763,314.631z"/>
	<path style="fill:#455A64;" d="M404.635,164.106l0.276,0.504c0.31,0.566,0.775,1.031,1.341,1.341l0.504,0.276l-0.504,0.276
		c-0.566,0.309-1.031,0.775-1.341,1.341l-0.276,0.504l-0.276-0.504c-0.31-0.566-0.775-1.031-1.341-1.341l-0.504-0.276l0.504-0.276
		c0.566-0.31,1.031-0.775,1.341-1.341L404.635,164.106z"/>
	<path style="fill:#455A64;" d="M255.848,144.93l0.276,0.504c0.31,0.566,0.775,1.031,1.341,1.341l0.504,0.276l-0.504,0.276
		c-0.566,0.309-1.031,0.775-1.341,1.341l-0.276,0.504l-0.276-0.504c-0.31-0.566-0.775-1.031-1.341-1.341l-0.504-0.276l0.504-0.276
		c0.566-0.31,1.031-0.775,1.341-1.341L255.848,144.93z"/>
	<path style="fill:#455A64;" d="M357.545,77.9l0.952,1.741c1.069,1.954,2.675,3.561,4.629,4.629l1.741,0.952l-1.741,0.952
		c-1.954,1.069-3.56,2.675-4.629,4.629l-0.952,1.741l-0.952-1.741c-1.069-1.954-2.675-3.561-4.629-4.629l-1.741-0.952l1.741-0.952
		c1.954-1.069,3.56-2.675,4.629-4.629L357.545,77.9z"/>
	<path style="fill:#455A64;" d="M254.268,389.424l0.952,1.741c1.069,1.954,2.675,3.561,4.629,4.629l1.741,0.952l-1.741,0.952
		c-1.954,1.069-3.56,2.675-4.629,4.629l-0.952,1.741l-0.952-1.741c-1.069-1.954-2.675-3.56-4.629-4.629l-1.741-0.952l1.741-0.952
		c1.954-1.069,3.561-2.675,4.629-4.629L254.268,389.424z"/>
</g>
</svg>
